<svg xmlns="http://www.w3.org/2000/svg" xmlns:xlink="http://www.w3.org/1999/xlink" width="137" height="28" viewBox="0 0 137 28">
  <defs>
    <clipPath id="clip-path">
      <rect width="71.106" height="15.542" fill="none"/>
    </clipPath>
  </defs>
  <g id="Group_359" data-name="Group 359" transform="translate(3 -5)">
    <text id="_9.4" data-name="9.4" transform="translate(36 27)" fill="#fcc537" font-size="28" font-family="Helvetica"><tspan x="-38.924" y="0">9.4</tspan></text>
    <g id="Repeat_Grid_1" data-name="Repeat Grid 1" transform="translate(46.069 13.272)" clip-path="url(#clip-path)">
      <g transform="translate(-1593 -541)">
        <path id="star_1_" data-name="star (1)" d="M8.792,1.528,10.6,5.193a.863.863,0,0,0,.65.472l4.044.588a.863.863,0,0,1,.479,1.473l-2.926,2.852a.864.864,0,0,0-.248.764l.691,4.028a.864.864,0,0,1-1.253.91l-3.617-1.9a.864.864,0,0,0-.8,0L4,16.28a.864.864,0,0,1-1.253-.91l.691-4.028a.864.864,0,0,0-.248-.764L.262,7.725A.863.863,0,0,1,.741,6.253l4.044-.588a.863.863,0,0,0,.65-.472L7.244,1.528A.863.863,0,0,1,8.792,1.528Z" transform="translate(1593 539.953)" fill="#fcc537"/>
      </g>
      <g transform="translate(-1575 -541)">
        <path id="star_1_2" data-name="star (1)" d="M8.792,1.528,10.6,5.193a.863.863,0,0,0,.65.472l4.044.588a.863.863,0,0,1,.479,1.473l-2.926,2.852a.864.864,0,0,0-.248.764l.691,4.028a.864.864,0,0,1-1.253.91l-3.617-1.9a.864.864,0,0,0-.8,0L4,16.28a.864.864,0,0,1-1.253-.91l.691-4.028a.864.864,0,0,0-.248-.764L.262,7.725A.863.863,0,0,1,.741,6.253l4.044-.588a.863.863,0,0,0,.65-.472L7.244,1.528A.863.863,0,0,1,8.792,1.528Z" transform="translate(1593 539.953)" fill="#fcc537"/>
      </g>
      <g transform="translate(-1557 -541)">
        <path id="star_1_3" data-name="star (1)" d="M8.792,1.528,10.6,5.193a.863.863,0,0,0,.65.472l4.044.588a.863.863,0,0,1,.479,1.473l-2.926,2.852a.864.864,0,0,0-.248.764l.691,4.028a.864.864,0,0,1-1.253.91l-3.617-1.9a.864.864,0,0,0-.8,0L4,16.28a.864.864,0,0,1-1.253-.91l.691-4.028a.864.864,0,0,0-.248-.764L.262,7.725A.863.863,0,0,1,.741,6.253l4.044-.588a.863.863,0,0,0,.65-.472L7.244,1.528A.863.863,0,0,1,8.792,1.528Z" transform="translate(1593 539.953)" fill="#fcc537"/>
      </g>
      <g transform="translate(-1539 -541)">
        <path id="star_1_4" data-name="star (1)" d="M8.792,1.528,10.6,5.193a.863.863,0,0,0,.65.472l4.044.588a.863.863,0,0,1,.479,1.473l-2.926,2.852a.864.864,0,0,0-.248.764l.691,4.028a.864.864,0,0,1-1.253.91l-3.617-1.9a.864.864,0,0,0-.8,0L4,16.28a.864.864,0,0,1-1.253-.91l.691-4.028a.864.864,0,0,0-.248-.764L.262,7.725A.863.863,0,0,1,.741,6.253l4.044-.588a.863.863,0,0,0,.65-.472L7.244,1.528A.863.863,0,0,1,8.792,1.528Z" transform="translate(1593 539.953)" fill="#fcc537"/>
      </g>
    </g>
    <g id="Group_39" data-name="Group 39" transform="translate(117.745 13.272)">
      <path id="star_2_" data-name="star (2)" d="M15.9,8.105a1.166,1.166,0,0,0-.646-1.988L11.32,5.545a.514.514,0,0,1-.387-.282L9.173,1.7a1.166,1.166,0,0,0-2.091,0L5.323,5.263a.515.515,0,0,1-.388.282L1,6.117A1.166,1.166,0,0,0,.353,8.105L3.2,10.881a.515.515,0,0,1,.148.456l-.672,3.92a1.166,1.166,0,0,0,1.691,1.229l3.52-1.851a.515.515,0,0,1,.479,0l3.52,1.851a1.166,1.166,0,0,0,1.691-1.229l-.672-3.92a.515.515,0,0,1,.148-.456Zm-3.637,3.342.672,3.92a.515.515,0,0,1-.747.543l-3.52-1.851a1.166,1.166,0,0,0-1.085,0L4.066,15.91a.515.515,0,0,1-.747-.543l.672-3.92a1.166,1.166,0,0,0-.335-1.032L.807,7.639a.515.515,0,0,1,.285-.878l3.936-.572a1.164,1.164,0,0,0,.878-.638l1.76-3.567a.515.515,0,0,1,.923,0l1.76,3.567a1.164,1.164,0,0,0,.878.638l3.936.572a.515.515,0,0,1,.285.878L12.6,10.415A1.165,1.165,0,0,0,12.265,11.447Z" transform="translate(0 -1.047)" fill="#fcc537"/>
      <path id="Path_17" data-name="Path 17" d="M7631.77,559.1v8.7l-3.833,1.562.31-5.449-3.28-3.1.243-1.154Z" transform="translate(-7624.676 -554.272)" fill="#fcc537" stroke="#fcc537" stroke-width="0.2"/>
      <path id="Path_18" data-name="Path 18" d="M7631.875,559.016v-2.969l-2.156,3.406Z" transform="translate(-7624.676 -554.272)" fill="#fcc537"/>
      <path id="Path_19" data-name="Path 19" d="M7635.923,559.1v9.85l-3.116-1.584-1.637.634.264-11.724.845-1.637,1.109.106,2.007,4.119Z" transform="translate(-7624.676 -554.272)" fill="#fcc537"/>
    </g>
  </g>
</svg>
